<svg version="1.1" width="363" height="347" viewBox="9 -1 363 347" xmlns="http://www.w3.org/2000/svg" xmlns:xlink="http://www.w3.org/1999/xlink">
  <!-- Exported by Scratch - http://scratch.mit.edu/ -->
  <path id="ID0.6027817497961223" fill="#001A14" stroke="#001A14" stroke-width="2" stroke-linecap="round" d="M 236.650 137.400 C 250.453 144.939 262.701 158.328 267.650 173.400 C 276.084 196.227 274.337 221.423 275 246 C 275.166 252.144 276.498 254.547 270.500 255.250 C 247.103 258.051 222.967 258.678 199.500 255 C 193.633 254.081 193.841 251.810 194.500 243.250 C 197.135 209.009 194.841 172.112 207.650 139.400 C 211.264 130.870 228.154 132.766 236.650 137.400 Z " transform="matrix(1.555063009262085, 0, 0, 1.555063009262085, -173.65, -56.55)"/>
  <path id="ID0.6027817497961223" fill="#0C2F3E" stroke="#0C2F3E" stroke-width="2" stroke-linecap="round" d="M 234.250 50.750 C 245.044 50.363 255.094 59.771 260.750 68.750 C 266.150 77.224 263.670 88.667 264.500 98.500 C 265.663 112.295 266.501 126.150 267 140 C 267.678 158.805 278.120 180.508 268 196.500 C 261.380 206.885 243.050 200.217 231 197 C 223.689 195.048 217.219 188.789 213.500 182.500 C 207.526 172.392 203.212 160.792 202.500 149 C 200.934 123.021 199.464 95.815 207.500 71 C 210.942 60.371 223.086 51.152 234.250 50.750 Z " transform="matrix(1.555063009262085, 0, 0, 1.555063009262085, -174.1, -54.55)"/>
  <path id="ID0.9871054571121931" fill="#FFFFFF" stroke="#FFFFFF" stroke-width="2" stroke-linecap="round" d="M 234.750 66.950 C 240.695 67.081 246.764 69.771 251.082 73.312 C 254.953 76.480 257.172 81.351 257.750 86.125 C 258.288 90.592 258.139 96.501 254.500 98.850 C 249.197 102.503 241.798 101.168 235.500 101.050 C 228.784 100.924 221.162 102.101 215.500 98.400 C 211.936 96.176 211.688 90.401 212.250 86.125 C 212.878 81.356 215.061 76.497 218.918 73.312 C 223.166 69.794 229.047 67.081 234.750 66.950 Z " transform="matrix(1.555063009262085, 0, 0, 1.595718264579773, -174.5, -71.55)"/>
  <path id="ID0.764474296476692" fill="#FFFFFF" stroke="#FFFFFF" stroke-width="2" stroke-linecap="round" d="M 227.250 91.250 C 227.766 91.210 228.475 91.103 228.750 91.500 C 229.224 92.236 229.062 93.223 229.100 94.050 C 229.156 95.264 229.519 96.611 229.050 97.700 C 228.800 98.282 227.948 98.509 227.300 98.450 C 226.702 98.396 226.003 98.018 225.800 97.450 C 225.343 96.214 225.574 94.817 225.600 93.500 C 225.606 92.917 225.628 92.265 226 91.800 C 226.246 91.423 226.797 91.285 227.250 91.250 Z " transform="matrix(1.555063009262085, 0, 0, 1.555063009262085, -174.1, -54.55)"/>
  <path id="ID0.764474296476692" fill="#FFFFFF" stroke="#FFFFFF" stroke-width="2" stroke-linecap="round" d="M 227.250 91.250 C 227.766 91.210 228.475 91.103 228.750 91.500 C 229.224 92.236 229.062 93.223 229.100 94.050 C 229.156 95.264 229.519 96.611 229.050 97.700 C 228.800 98.282 227.948 98.509 227.300 98.450 C 226.702 98.396 226.003 98.018 225.800 97.450 C 225.343 96.214 225.574 94.817 225.600 93.500 C 225.606 92.917 225.628 92.265 226 91.800 C 226.246 91.423 226.797 91.285 227.250 91.250 Z " transform="matrix(1.555063009262085, 0, 0, 1.555063009262085, -162.9, -54.55)"/>
  <path id="ID0.764474296476692" fill="#FFFFFF" stroke="#FFFFFF" stroke-width="2" stroke-linecap="round" d="M 227.250 91.250 C 227.766 91.210 228.475 91.103 228.750 91.500 C 229.224 92.236 229.062 93.223 229.100 94.050 C 229.156 95.264 229.519 96.611 229.050 97.700 C 228.800 98.282 227.948 98.509 227.300 98.450 C 226.702 98.396 226.003 98.018 225.800 97.450 C 225.343 96.214 225.574 94.817 225.600 93.500 C 225.606 92.917 225.628 92.265 226 91.800 C 226.246 91.423 226.797 91.285 227.250 91.250 Z " transform="matrix(1.555063009262085, 0, 0, 1.555063009262085, -151.9, -54.35)"/>
  <path id="ID0.19290487561374903" fill="#7C9FAE" stroke="#7C9FAE" stroke-width="2" stroke-linecap="round" d="M 198.350 41.400 C 212.169 39.026 228.004 39.928 240.500 40.750 C 243.754 41.053 233.402 42.793 229.850 43.650 C 218.465 46.397 206.423 47.635 195.600 51.650 C 187.110 54.801 179.205 59.616 171.850 64.900 C 161.649 72.229 153.976 82.940 143.250 89.500 C 140.584 91.125 142.727 84.017 144.850 81.400 C 153.343 70.931 162.212 60.443 173.100 52.400 C 180.363 46.872 189.311 42.953 198.350 41.400 Z " transform="matrix(1.555063009262085, 0, 0, 1.555063009262085, -174.1, -54.55)"/>
  <path id="ID0.456670681014657" fill="#315463" stroke="#315463" stroke-width="2" d="M 132 87 L 145 87 L 145 258 L 132 258 L 132 87 Z " transform="matrix(0.7388824820518494, -0.8772037625312805, 1.8035879135131836, 1.5191904306411743, -232.85, 65.35)"/>
  <path id="ID0.9315677541308105" fill="#A7CAD9" stroke="#A7CAD9" stroke-width="2" stroke-linecap="round" d="M 209.500 36.500 C 220.222 35.291 231.101 38.807 242 40.500 C 244.488 40.924 241.886 40.324 238 41 C 222.470 43.703 205.982 43.152 191.350 48.900 C 177.620 54.555 166.503 65.368 154.850 74.400 C 151.411 77.116 150.490 83.296 146.350 84.400 C 141.010 85.833 127.447 86.093 130 81.500 C 137.397 68.207 152.287 56.927 166.500 49 C 179.694 41.643 194.688 38.180 209.500 36.500 Z " transform="matrix(1.555063009262085, 0, 0, 1.555063009262085, -174.1, -54.55)"/>
  <path id="ID0.47518437448889017" fill="#000000" stroke="none" d="M 224.125 70 C 225.470 70 226.689 70.560 227.571 71.465 C 228.454 72.371 229 73.621 229 75 C 229 76.379 228.454 77.629 227.571 78.535 C 226.689 79.440 225.470 80 224.125 80 C 222.780 80 221.561 79.440 220.679 78.535 C 219.796 77.629 219.250 76.379 219.250 75 C 219.250 73.621 219.796 72.371 220.679 71.465 C 221.561 70.560 222.780 70 224.125 70 Z " transform="matrix(1.555063009262085, 0, 0, 1.555063009262085, -174.1, -54.55)"/>
  <path id="ID0.47518437448889017" fill="#000000" stroke="none" d="M 224.125 70 C 225.470 70 226.689 70.560 227.571 71.465 C 228.454 72.371 229 73.621 229 75 C 229 76.379 228.454 77.629 227.571 78.535 C 226.689 79.440 225.470 80 224.125 80 C 222.780 80 221.561 79.440 220.679 78.535 C 219.796 77.629 219.250 76.379 219.250 75 C 219.250 73.621 219.796 72.371 220.679 71.465 C 221.561 70.560 222.780 70 224.125 70 Z " transform="matrix(1.555063009262085, 0, 0, 1.555063009262085, -142.65, -54.55)"/>
  <path id="ID0.6004781043156981" fill="#FFFFFF" stroke="#FFFFFF" stroke-width="2" stroke-linecap="round" d="M 205.350 134 C 207.353 133.280 210.897 133.608 211.500 134.850 C 212.029 135.941 208.051 136.783 207.500 138.500 C 207.209 139.410 208.828 140.265 209.750 140.150 C 212.807 139.770 216.434 136.602 218.500 137.150 C 219.655 137.470 217.109 140.387 216.150 141.850 C 215.470 142.886 214.280 143.544 213.750 144.650 C 213.545 145.036 214.040 145.608 214.500 145.500 C 216.340 145.067 219.219 142.273 219.750 143.350 C 220.469 144.848 219.374 149.593 217 150.650 C 210.797 153.413 203.537 154.774 196.850 153.650 C 194.266 153.222 193.260 149.260 193.250 146.675 C 193.241 144.289 195.115 142.156 196.767 140.436 C 199.206 137.896 201.990 135.212 205.350 134 Z " transform="matrix(1.555063009262085, 0, 0, 1.555063009262085, -174.1, -54.55)"/>
  <path id="ID0.5161417205817997" fill="#FFFFFF" stroke="#FFFFFF" stroke-width="2" stroke-linecap="round" d="M 269.100 187.500 C 272.549 187.500 275.943 188.643 277.936 191.120 C 279.735 193.353 279.531 196.820 278.800 199.500 C 277.903 202.958 275.408 205.759 273.300 208.600 C 271.582 210.916 269.722 213.284 267.300 214.850 C 266.420 215.418 264.059 215.361 264.050 214.350 C 264.032 212.426 267.147 211.142 267.400 209.100 C 267.463 208.150 265.478 207.659 264.700 208.200 C 262.934 209.427 262.533 212.138 260.800 213.500 C 260.275 213.983 258.907 213.780 258.700 213.100 C 258.287 211.740 259.208 210.289 259.200 208.850 C 259.275 207.409 259.699 204.839 258.900 204.500 C 258.192 204.197 257.601 206.994 256.400 207.600 C 255.880 207.864 254.589 208.036 254.900 206.700 C 256.145 201.356 257.041 195.511 260.264 191.120 C 262.145 188.556 265.651 187.500 269.100 187.500 Z " transform="matrix(1.555063009262085, 0, 0, 1.555063009262085, -170.6, -56.8)"/>
  <g id="ID0.4598344932310283">
    <path id="ID0.84285893663764" fill="#000000" stroke="none" stroke-linecap="round" d="M 148.850 144.550 C 149.779 142.607 150.587 138.860 152.700 139.350 C 156.301 140.185 159.612 143.630 160.500 147.250 C 162.742 156.392 161.634 166.088 161.500 175.500 C 161.444 179.366 162.052 184.040 159.850 187.500 C 158.606 189.268 155.398 187.990 153.100 188.250 C 151.123 188.470 147.969 190.199 147.100 188.500 C 145.186 184.282 146.769 179.207 146.750 174.750 C 146.712 166.341 146.151 157.860 147.100 149.500 C 147.273 147.409 149.305 146.639 149.950 144.950 C 150.111 144.528 148.590 145.028 148.850 144.550 Z " transform="matrix(1.555063009262085, 0, 0, 1.555063009262085, -174.1, -54.55)"/>
    <path id="ID0.84285893663764" fill="#000000" stroke="none" stroke-linecap="round" d="M 162.250 128.700 C 165.535 131.379 163.360 139.326 164.500 144.550 C 166.427 154.527 172.123 164.149 171.450 174.300 C 171.245 177.394 164.518 173.991 162.350 176.200 C 160.363 178.227 162.089 188.636 161.100 184.600 C 157.357 168.394 152.513 152.008 152.800 135.350 C 152.872 131.186 159.877 126.765 162.250 128.700 Z " transform="matrix(1.2090668678283691, 0.9779459238052368, -0.9779459238052368, 1.2090668678283691, -2.55, -148.35)"/>
    <path id="ID0.9708642312325537" fill="#000000" stroke="none" stroke-linecap="round" d="M 143.250 182.750 C 150.990 182.451 158.968 180.277 166.500 182 C 168.716 182.507 169.134 186.051 169.250 188.250 C 169.314 190.527 168.995 193.889 167 194.500 C 159.891 196.677 152.176 195.940 144.750 196 C 137.732 196.058 130.196 197.022 123.250 195 C 121.336 194.383 120.862 191.070 121.250 189 C 121.671 186.769 123.186 184.485 125.250 184 C 131.040 182.253 137.301 182.980 143.250 182.750 Z " transform="matrix(1.555063009262085, 0, 0, 1.555063009262085, -174.1, -54.55)"/>
    <path id="ID0.84285893663764" fill="#000000" stroke="none" stroke-linecap="round" d="M 146.150 187.850 C 148.508 183.667 157.748 183.116 160.400 187.100 C 164.495 193.295 162.425 202.220 160.500 209.500 C 159.871 211.878 156.182 212.528 153.750 212.500 C 151.450 212.710 148.136 212.150 147.500 210 C 145.428 203.005 142.522 194.287 146.150 187.850 Z " transform="matrix(1.555063009262085, 0, 0, 1.555063009262085, -174.1, -54.85)"/>
    <path id="ID0.8956645904108882" fill="#000000" stroke="none" stroke-linecap="round" d="M 128.950 177.550 C 130.978 177.185 133.771 178.277 134.700 180.200 C 135.674 182.221 132.730 184.537 133.100 186.750 C 133.422 188.667 137.953 190.372 136.800 191.400 C 134.678 193.197 129.901 192.557 126.550 192.400 C 124.914 192.323 123.178 191.791 121.920 190.744 C 120.930 189.923 120.530 188.503 120.600 187.250 C 120.530 185.683 120.865 183.940 121.920 182.756 C 123.855 180.580 126.069 178.167 128.950 177.550 Z " transform="matrix(1.555063009262085, 0, 0, 2.0504813194274902, -176.8, -144.55)"/>
  </g>
  <g id="ID0.4598344932310283">
    <path id="ID0.84285893663764" fill="#000000" stroke="none" stroke-linecap="round" d="M 148.850 144.550 C 149.779 142.607 150.587 138.860 152.700 139.350 C 156.301 140.185 159.612 143.630 160.500 147.250 C 162.742 156.392 161.634 166.088 161.500 175.500 C 161.444 179.366 162.052 184.040 159.850 187.500 C 158.606 189.268 155.398 187.990 153.100 188.250 C 151.123 188.470 147.969 190.199 147.100 188.500 C 145.186 184.282 146.769 179.207 146.750 174.750 C 146.712 166.341 146.151 157.860 147.100 149.500 C 147.273 147.409 149.305 146.639 149.950 144.950 C 150.111 144.528 148.590 145.028 148.850 144.550 Z " transform="matrix(1.555063009262085, 0, 0, 1.555063009262085, 109.4, -54.55)"/>
    <path id="ID0.84285893663764" fill="#000000" stroke="none" stroke-linecap="round" d="M 162.250 128.700 C 165.535 131.379 163.360 139.326 164.500 144.550 C 166.427 154.527 172.123 164.149 171.450 174.300 C 171.245 177.394 164.518 173.991 162.350 176.200 C 160.363 178.227 162.089 188.636 161.100 184.600 C 157.357 168.394 152.513 152.008 152.800 135.350 C 152.872 131.186 159.877 126.765 162.250 128.700 Z " transform="matrix(1.2090668678283691, 0.9779459238052368, -0.9779459238052368, 1.2090668678283691, 280.9, -148.35)"/>
    <path id="ID0.9708642312325537" fill="#000000" stroke="none" stroke-linecap="round" d="M 143.250 182.750 C 150.990 182.451 158.968 180.277 166.500 182 C 168.716 182.507 169.134 186.051 169.250 188.250 C 169.314 190.527 168.995 193.889 167 194.500 C 159.891 196.677 152.176 195.940 144.750 196 C 137.732 196.058 130.196 197.022 123.250 195 C 121.336 194.383 120.862 191.070 121.250 189 C 121.671 186.769 123.186 184.485 125.250 184 C 131.040 182.253 137.301 182.980 143.250 182.750 Z " transform="matrix(1.555063009262085, 0, 0, 1.555063009262085, 109.4, -54.55)"/>
    <path id="ID0.84285893663764" fill="#000000" stroke="none" stroke-linecap="round" d="M 146.150 187.850 C 148.508 183.667 157.748 183.116 160.400 187.100 C 164.495 193.295 162.425 202.220 160.500 209.500 C 159.871 211.878 156.182 212.528 153.750 212.500 C 151.450 212.710 148.136 212.150 147.500 210 C 145.428 203.005 142.522 194.287 146.150 187.850 Z " transform="matrix(1.555063009262085, 0, 0, 1.555063009262085, 109.4, -54.85)"/>
    <path id="ID0.8956645904108882" fill="#000000" stroke="none" stroke-linecap="round" d="M 128.950 177.550 C 130.978 177.185 133.771 178.277 134.700 180.200 C 135.674 182.221 132.730 184.537 133.100 186.750 C 133.422 188.667 137.953 190.372 136.800 191.400 C 134.678 193.197 129.901 192.557 126.550 192.400 C 124.914 192.323 123.178 191.791 121.920 190.744 C 120.930 189.923 120.530 188.503 120.600 187.250 C 120.530 185.683 120.865 183.940 121.920 182.756 C 123.855 180.580 126.069 178.167 128.950 177.550 Z " transform="matrix(1.555063009262085, 0, 0, 2.0504813194274902, 106.65, -144.55)"/>
  </g>
</svg>